<?xml version="1.0" encoding="UTF-8" standalone="no"?>
<!-- Created with Inkscape (http://www.inkscape.org/) -->

<svg
   width="251.112mm"
   height="62.193356mm"
   viewBox="0 0 251.11199 62.193357"
   version="1.1"
   id="svg1671"
   sodipodi:docname="fig_3.7_2.svg"
   inkscape:version="1.2.2 (b0a8486541, 2022-12-01)"
   xmlns:inkscape="http://www.inkscape.org/namespaces/inkscape"
   xmlns:sodipodi="http://sodipodi.sourceforge.net/DTD/sodipodi-0.dtd"
   xmlns="http://www.w3.org/2000/svg"
   xmlns:svg="http://www.w3.org/2000/svg">
  <sodipodi:namedview
     id="namedview99"
     pagecolor="#ffffff"
     bordercolor="#666666"
     borderopacity="1.0"
     inkscape:showpageshadow="2"
     inkscape:pageopacity="0.0"
     inkscape:pagecheckerboard="0"
     inkscape:deskcolor="#d1d1d1"
     inkscape:document-units="mm"
     showgrid="false"
     inkscape:zoom="1.4491536"
     inkscape:cx="405.40906"
     inkscape:cy="125.93558"
     inkscape:window-width="2560"
     inkscape:window-height="1402"
     inkscape:window-x="1600"
     inkscape:window-y="0"
     inkscape:window-maximized="1"
     inkscape:current-layer="svg1671" />
  <defs
     id="defs1668">
    <clipPath
       id="clip22">
      <rect
         x="0"
         y="0"
         width="57"
         height="34"
         id="rect360" />
    </clipPath>
    <clipPath
       id="clip23">
      <path
         d="M 1,0.148438 H 56 V 33.59375 H 1 Z m 0,0"
         id="path354" />
    </clipPath>
    <clipPath
       id="clip24">
      <path
         d="M 0.578125,0.148438 H 56.007812 V 33.59375 H 0.578125 Z m 0,0"
         id="path357" />
    </clipPath>
    <mask
       id="mask8">
      <g
         filter="url(#alpha)"
         id="g351">
        <rect
           x="0"
           y="0"
           width="1024"
           height="768"
           style="fill:#000000;fill-opacity:0.3;stroke:none"
           id="rect349" />
      </g>
    </mask>
    <filter
       id="alpha"
       filterUnits="objectBoundingBox"
       x="0"
       y="0"
       width="1"
       height="1">
      <feColorMatrix
         type="matrix"
         in="SourceGraphic"
         values="0 0 0 0 1 0 0 0 0 1 0 0 0 0 1 0 0 0 1 0"
         id="feColorMatrix212" />
    </filter>
    <clipPath
       id="clipPath1488">
      <rect
         x="0"
         y="0"
         width="57"
         height="34"
         id="rect1486" />
    </clipPath>
    <clipPath
       id="clipPath1492">
      <path
         d="M 1,0.148438 H 56 V 33.59375 H 1 Z m 0,0"
         id="path1490" />
    </clipPath>
    <clipPath
       id="clipPath1496">
      <path
         d="M 0.578125,0.148438 H 56.007812 V 33.59375 H 0.578125 Z m 0,0"
         id="path1494" />
    </clipPath>
  </defs>
  <g
     id="layer1"
     transform="translate(-2.0782344,-61.975724)">
    <path
       style="fill:#f0f0f0;fill-opacity:1;fill-rule:nonzero;stroke:#009442;stroke-width:0.531054;stroke-linecap:butt;stroke-linejoin:miter;stroke-miterlimit:10;stroke-opacity:1"
       d="m 145.03964,92.158392 h 14.5226 V 73.321985 h -14.5226 z m 0,0"
       id="path378" />
    <path
       style="fill:#f0f0f0;fill-opacity:1;fill-rule:nonzero;stroke:#3f3f3f;stroke-width:0.531054;stroke-linecap:butt;stroke-linejoin:miter;stroke-miterlimit:10;stroke-opacity:1"
       d="m 220.33982,90.899777 h 31.56515 V 72.06114 h -31.56515 z m 0,0"
       id="path380" />
    <path
       style="fill:#3f3f3f;fill-opacity:1;fill-rule:nonzero;stroke:none;stroke-width:0.352778"
       d="m 9.6097353,66.584968 h -0.91226 l 0.96049,-0.97703 h -2.08221 v -0.67662 h 2.08221 l -0.96049,-0.97979 h 0.91226 l 1.2540197,1.31328 v 0.011 z m 0,0"
       id="path592" />
    <path
       style="fill:#3f3f3f;fill-opacity:1;fill-rule:nonzero;stroke:none;stroke-width:0.352778"
       d="m 108.42689,66.126118 h -0.91226 l 0.96049,-0.97703 h -2.08221 v -0.67662 h 2.08221 l -0.96049,-0.97978 h 0.91226 l 1.25402,1.31327 v 0.011 z m 0,0"
       id="path612" />
    <path
       style="fill:#3f3f3f;fill-opacity:1;fill-rule:nonzero;stroke:none;stroke-width:0.352778"
       d="m 193.12508,66.732206 h -0.91226 l 0.96049,-0.97703 h -2.08221 v -0.67662 h 2.08221 l -0.96049,-0.97978 h 0.91226 l 1.25402,1.31189 v 0.0124 z m 0,0"
       id="path636" />
    <path
       style="fill:#3f3f3f;fill-opacity:1;fill-rule:nonzero;stroke:none;stroke-width:0.579094"
       d="m 37.354889,92.429636 h 27.00479 v -0.615293 h -27.00479 z m 0,0"
       id="path920" />
    <path
       style="fill:#3f3f3f;fill-opacity:1;fill-rule:nonzero;stroke:none;stroke-width:0.579094"
       d="m 37.357155,92.429636 h 0.617542 V 73.590983 h -0.617542 z m 0,0"
       id="path922" />
    <path
       style="fill:#3f3f3f;fill-opacity:1;fill-rule:nonzero;stroke:none;stroke-width:0.579094"
       d="m 55.546584,76.932081 c -0.39812,0.318949 -0.981732,0.253353 -1.300697,-0.144782 -0.316683,-0.395855 -0.253353,-0.981732 0.144783,-1.300697 0.398119,-0.321214 0.983996,-0.255618 1.300696,0.142485 0.321214,0.400384 0.255619,0.984013 -0.144782,1.302961"
       id="path924" />
    <path
       style="fill:#3f3f3f;fill-opacity:1;fill-rule:nonzero;stroke:none;stroke-width:0.579094"
       d="m 52.366093,87.930343 c 0,0.513502 -0.41396,0.927462 -0.925181,0.927462 -0.511237,0 -0.927463,-0.41396 -0.927463,-0.927462 0,-0.508972 0.416226,-0.925197 0.927463,-0.925197 0.511221,0 0.925181,0.416225 0.925181,0.925197"
       id="path926" />
    <path
       style="fill:#3f3f3f;fill-opacity:1;fill-rule:nonzero;stroke:none;stroke-width:0.579094"
       d="m 59.577631,88.706243 c -0.400401,0.318949 -0.981747,0.253354 -1.300696,-0.149379 -0.321214,-0.39587 -0.257884,-0.977233 0.140186,-1.300713 0.402667,-0.316683 0.981765,-0.253353 1.302962,0.149379 0.32123,0.395855 0.257884,0.981732 -0.142484,1.300697"
       id="path928" />
    <path
       style="fill:#3f3f3f;fill-opacity:1;fill-rule:nonzero;stroke:none;stroke-width:0.579094"
       d="m 47.627022,87.315049 c 0,0.508972 -0.413961,0.925198 -0.922932,0.925198 -0.513486,0 -0.929712,-0.416226 -0.929712,-0.925198 0,-0.51122 0.416226,-0.927446 0.929712,-0.927446 0.508971,0 0.922932,0.416226 0.922932,0.927446"
       id="path930" />
    <path
       style="fill:#3f3f3f;fill-opacity:1;fill-rule:nonzero;stroke:none;stroke-width:0.579094"
       d="m 44.851446,85.849232 c 0,0.508955 -0.416225,0.925181 -0.929711,0.925181 -0.506723,0 -0.920667,-0.416226 -0.920667,-0.925181 0,-0.513503 0.413944,-0.922932 0.920667,-0.922932 0.513486,0 0.929711,0.409429 0.929711,0.922932"
       id="path932" />
    <path
       style="fill:#3f3f3f;fill-opacity:1;fill-rule:nonzero;stroke:none;stroke-width:0.579094"
       d="m 62.242371,89.69024 c -0.398136,0.318965 -0.981748,0.253353 -1.300697,-0.144783 -0.318965,-0.400384 -0.253353,-0.984013 0.142485,-1.300696 0.400401,-0.318965 0.981748,-0.255619 1.302962,0.142484 0.321214,0.400402 0.257884,0.981748 -0.144783,1.302962"
       id="path934" />
    <path
       style="fill:#3f3f3f;fill-opacity:1;fill-rule:nonzero;stroke:none;stroke-width:0.579094"
       d="M 3.4055076,92.429636 H 30.412545 V 91.814343 H 3.4055076 Z m 0,0"
       id="path936" />
    <path
       style="fill:#3f3f3f;fill-opacity:1;fill-rule:nonzero;stroke:none;stroke-width:0.579094"
       d="m 3.4055076,92.429636 h 0.619808 V 73.590983 h -0.619808 z m 0,0"
       id="path938" />
    <path
       style="fill:#3f3f3f;fill-opacity:1;fill-rule:nonzero;stroke:none;stroke-width:0.579094"
       d="m 27.926518,77.327935 c -0.110803,0.499927 -0.601718,0.818892 -1.101629,0.710305 -0.495412,-0.108505 -0.814361,-0.601718 -0.708039,-1.101645 0.106371,-0.49991 0.601718,-0.818859 1.101628,-0.708023 0.499927,0.108505 0.816611,0.601718 0.70804,1.099363"
       id="path940" />
    <path
       style="fill:#3f3f3f;fill-opacity:1;fill-rule:nonzero;stroke:none;stroke-width:0.579094"
       d="m 15.70898,85.77231 c 0.323495,0.398119 0.262414,0.979482 -0.133457,1.302962 -0.398135,0.321214 -0.981747,0.262398 -1.305227,-0.135755 -0.321214,-0.39587 -0.262398,-0.979482 0.138053,-1.302961 0.39587,-0.321214 0.977233,-0.262398 1.300696,0.135754"
       id="path942" />
    <path
       style="fill:#3f3f3f;fill-opacity:1;fill-rule:nonzero;stroke:none;stroke-width:0.579094"
       d="m 21.791739,81.82498 c -0.108505,0.49991 -0.597188,0.81661 -1.09938,0.705758 -0.502176,-0.106371 -0.818876,-0.597188 -0.712554,-1.099363 0.110803,-0.499927 0.601718,-0.816627 1.103894,-0.705775 0.499927,0.106371 0.818876,0.599453 0.70804,1.09938"
       id="path944" />
    <path
       style="fill:#3f3f3f;fill-opacity:1;fill-rule:nonzero;stroke:none;stroke-width:0.579094"
       d="m 11.641752,88.278708 c 0.32348,0.398119 0.262398,0.979482 -0.133456,1.302962 -0.400401,0.323479 -0.984013,0.264663 -1.302962,-0.131158 -0.3234787,-0.39812 -0.2646627,-0.981748 0.133457,-1.305228 0.39587,-0.323462 0.979482,-0.262398 1.302961,0.133457"
       id="path946" />
    <path
       style="fill:#3f3f3f;fill-opacity:1;fill-rule:nonzero;stroke:none;stroke-width:0.579094"
       d="m 8.5607873,88.893985 c 0.32348,0.39587 0.264664,0.979499 -0.135754,1.302962 -0.393605,0.32123 -0.977217,0.260149 -1.300696,-0.135755 -0.321214,-0.398119 -0.260133,-0.979482 0.135754,-1.298431 0.398136,-0.325744 0.977217,-0.266929 1.300696,0.131158"
       id="path948" />
    <path
       style="fill:#3f3f3f;fill-opacity:1;fill-rule:nonzero;stroke:none;stroke-width:0.579094"
       d="m 24.481364,80.906562 c -0.106371,0.499927 -0.601718,0.818876 -1.09938,0.70804 -0.499927,-0.108669 -0.818875,-0.601718 -0.710288,-1.097115 0.108504,-0.499927 0.601701,-0.821141 1.101628,-0.712554 0.502176,0.110804 0.818876,0.599453 0.70804,1.101629"
       id="path950" />
    <path
       style="fill:#3f3f3f;fill-opacity:1;fill-rule:nonzero;stroke:none;stroke-width:0.579094"
       d="m 238.39578,75.402238 c -0.39586,0.318949 -0.97948,0.253353 -1.3007,-0.147081 -0.31668,-0.395854 -0.25335,-0.981731 0.14479,-1.298431 0.39811,-0.323479 0.98399,-0.255619 1.30296,0.142484 0.31895,0.400385 0.25335,0.981748 -0.14708,1.302962"
       id="path1010" />
    <path
       style="fill:#3f3f3f;fill-opacity:1;fill-rule:nonzero;stroke:none;stroke-width:0.579094"
       d="m 235.21529,86.402765 c 0,0.511221 -0.41396,0.927446 -0.92518,0.927446 -0.51124,0 -0.92747,-0.416225 -0.92747,-0.927446 0,-0.511237 0.41623,-0.925197 0.92747,-0.925197 0.51122,0 0.92518,0.41396 0.92518,0.925197"
       id="path1012" />
    <path
       style="fill:#3f3f3f;fill-opacity:1;fill-rule:nonzero;stroke:none;stroke-width:0.579094"
       d="m 242.42683,87.1764 c -0.4004,0.318949 -0.97949,0.253353 -1.30072,-0.147081 -0.32119,-0.398119 -0.25786,-0.979482 0.14019,-1.300696 0.40265,-0.321214 0.98401,-0.255619 1.30296,0.147081 0.32123,0.398135 0.26015,0.979482 -0.14248,1.300712"
       id="path1014" />
    <path
       style="fill:#3f3f3f;fill-opacity:1;fill-rule:nonzero;stroke:none;stroke-width:0.579094"
       d="m 230.47848,85.782941 c 0,0.511237 -0.41396,0.925197 -0.92519,0.925197 -0.51349,0 -0.92745,-0.41396 -0.92745,-0.925197 0,-0.508972 0.41396,-0.925181 0.92745,-0.925181 0.51123,0 0.92519,0.416209 0.92519,0.925181"
       id="path1016" />
    <path
       style="fill:#3f3f3f;fill-opacity:1;fill-rule:nonzero;stroke:none;stroke-width:0.579094"
       d="m 227.70064,84.319372 c 0,0.508972 -0.41622,0.925197 -0.92746,0.925197 -0.50897,0 -0.92292,-0.416225 -0.92292,-0.925197 0,-0.513486 0.41395,-0.925181 0.92292,-0.925181 0.51124,0 0.92746,0.411695 0.92746,0.925181"
       id="path1018" />
    <path
       style="fill:#3f3f3f;fill-opacity:1;fill-rule:nonzero;stroke:none;stroke-width:0.579094"
       d="m 245.09383,88.158132 c -0.4004,0.323479 -0.98401,0.253353 -1.30296,-0.144783 -0.3167,-0.398136 -0.2511,-0.981748 0.14248,-1.300697 0.40041,-0.318948 0.98402,-0.255618 1.30523,0.142485 0.32122,0.40265 0.25789,0.984013 -0.14478,1.302962"
       id="path1020" />
    <path
       style="fill:#f0f0f0;fill-opacity:1;fill-rule:nonzero;stroke:#009442;stroke-width:0.531054;stroke-linecap:butt;stroke-linejoin:miter;stroke-miterlimit:10;stroke-opacity:1"
       d="m 185.75025,90.899777 h 31.56514 V 72.06114 h -31.56514 z m 0,0"
       id="path1022" />
    <path
       style="fill:#119e85;fill-opacity:1;fill-rule:nonzero;stroke:none;stroke-width:0.579094"
       d="m 210.77796,75.800357 c -0.1108,0.497662 -0.6017,0.816611 -1.10163,0.705775 -0.49539,-0.106371 -0.81661,-0.599453 -0.70804,-1.09938 0.10638,-0.502176 0.60172,-0.81661 1.09938,-0.705758 0.49993,0.104073 0.81888,0.599453 0.71029,1.099363"
       id="path1024" />
    <path
       style="fill:#119e85;fill-opacity:1;fill-rule:nonzero;stroke:none;stroke-width:0.579094"
       d="m 198.55818,84.240201 c 0.32349,0.398136 0.26241,0.981748 -0.13346,1.302962 -0.39814,0.323479 -0.98401,0.266929 -1.30523,-0.131158 -0.32121,-0.400385 -0.26013,-0.979466 0.13805,-1.305211 0.39587,-0.323479 0.97949,-0.262414 1.3007,0.133456"
       id="path1026" />
    <path
       style="fill:#119e85;fill-opacity:1;fill-rule:nonzero;stroke:none;stroke-width:0.579094"
       d="m 204.6432,80.29512 c -0.10851,0.499927 -0.59945,0.81661 -1.10165,0.705775 -0.50217,-0.104073 -0.81661,-0.594923 -0.71255,-1.099364 0.1108,-0.499927 0.60172,-0.816626 1.10389,-0.705774 0.49993,0.104073 0.81888,0.599453 0.71031,1.099363"
       id="path1028" />
    <path
       style="fill:#119e85;fill-opacity:1;fill-rule:nonzero;stroke:none;stroke-width:0.579094"
       d="m 194.49321,86.751113 c 0.32122,0.395871 0.26014,0.979499 -0.13575,1.300713 -0.4004,0.323479 -0.98175,0.262398 -1.30296,-0.133456 -0.32348,-0.398119 -0.26242,-0.979482 0.13345,-1.305227 0.39812,-0.321214 0.98175,-0.257867 1.30523,0.138052"
       id="path1030" />
    <path
       style="fill:#119e85;fill-opacity:1;fill-rule:nonzero;stroke:none;stroke-width:0.579094"
       d="m 191.41225,87.364141 c 0.32121,0.393606 0.2624,0.979483 -0.13576,1.302962 -0.39587,0.318965 -0.97948,0.260149 -1.30296,-0.135754 -0.32121,-0.398136 -0.26015,-0.977217 0.13576,-1.298448 0.39813,-0.325728 0.97721,-0.266912 1.30296,0.131158"
       id="path1032" />
    <path
       style="fill:#119e85;fill-opacity:1;fill-rule:nonzero;stroke:none;stroke-width:0.579094"
       d="m 207.33282,79.378984 c -0.10637,0.499927 -0.60398,0.814345 -1.10164,0.703509 -0.49993,-0.106371 -0.81661,-0.599453 -0.71029,-1.097114 0.10851,-0.499927 0.59945,-0.81661 1.10163,-0.710305 0.50218,0.108505 0.81888,0.601718 0.7103,1.10391"
       id="path1034" />
    <path
       style="fill:#3f3f3f;fill-opacity:1;fill-rule:nonzero;stroke:none;stroke-width:0.579094"
       d="m 232.46233,99.821458 0.55422,-3.739234 c 0.0115,-0.07699 0.0678,-0.09504 0.12212,-0.04301 l 1.00664,1.006633 c 0.61529,-0.601718 1.94765,-1.904679 1.40928,-3.221217 1.88658,1.938611 0.30991,4.033314 -0.10637,4.524179 l 0.90936,0.907092 c 0.0566,0.05663 0.0384,0.10637 -0.0384,0.122129 l -3.73924,0.560992 c -0.077,0.01149 -0.13345,-0.04071 -0.1177,-0.117698"
       id="path1036" />
    <path
       style="fill:#119e85;fill-opacity:1;fill-rule:nonzero;stroke:none;stroke-width:0.579094"
       d="m 204.48937,99.821458 -0.55421,-3.739234 c -0.0131,-0.07699 -0.0678,-0.09504 -0.12213,-0.04301 l -1.00663,1.006633 c -0.61303,-0.601718 -1.94992,-1.904679 -1.41155,-3.221217 -1.88431,1.938611 -0.30991,4.033314 0.10637,4.524179 l -0.90709,0.907092 c -0.0566,0.05663 -0.0363,0.10637 0.0363,0.122129 l 3.74148,0.560992 c 0.077,0.01149 0.13345,-0.04071 0.1177,-0.117698"
       id="path1038" />
    <path
       style="fill:#f0f0f0;fill-opacity:1;fill-rule:nonzero;stroke:#3f3f3f;stroke-width:0.531054;stroke-linecap:butt;stroke-linejoin:miter;stroke-miterlimit:10;stroke-opacity:1"
       d="m 202.39469,123.11643 h 31.56514 v -18.83641 h -31.56514 z m 0,0"
       id="path1226" />
    <path
       style="fill:#3f3f3f;fill-opacity:1;fill-rule:nonzero;stroke:none;stroke-width:0.579094"
       d="m 220.45066,107.61887 c -0.39814,0.32121 -0.97948,0.25562 -1.3007,-0.14478 -0.31896,-0.39586 -0.25335,-0.98175 0.14478,-1.3007 0.39814,-0.32121 0.98175,-0.25335 1.3007,0.14478 0.32122,0.39812 0.25562,0.98173 -0.14478,1.3007"
       id="path1228" />
    <path
       style="fill:#3f3f3f;fill-opacity:1;fill-rule:nonzero;stroke:none;stroke-width:0.579094"
       d="m 217.27017,118.61938 c 0,0.5135 -0.41396,0.92746 -0.9252,0.92746 -0.5135,0 -0.92746,-0.41396 -0.92746,-0.92746 0,-0.50896 0.41396,-0.92518 0.92746,-0.92518 0.51124,0 0.9252,0.41622 0.9252,0.92518"
       id="path1230" />
    <path
       style="fill:#3f3f3f;fill-opacity:1;fill-rule:nonzero;stroke:none;stroke-width:0.579094"
       d="m 224.47942,119.39302 c -0.40038,0.32123 -0.97948,0.25561 -1.29843,-0.14709 -0.32348,-0.39585 -0.25788,-0.97948 0.14019,-1.30069 0.40265,-0.31895 0.98175,-0.25562 1.30296,0.14708 0.32122,0.39813 0.25787,0.98175 -0.14478,1.3007"
       id="path1232" />
    <path
       style="fill:#3f3f3f;fill-opacity:1;fill-rule:nonzero;stroke:none;stroke-width:0.579094"
       d="m 212.53335,118.00184 c 0,0.50897 -0.41623,0.9252 -0.92519,0.9252 -0.5135,0 -0.92746,-0.41623 -0.92746,-0.9252 0,-0.50897 0.41396,-0.9252 0.92746,-0.9252 0.50896,0 0.92519,0.41623 0.92519,0.9252"
       id="path1234" />
    <path
       style="fill:#3f3f3f;fill-opacity:1;fill-rule:nonzero;stroke:none;stroke-width:0.579094"
       d="m 209.7555,116.53827 c 0,0.50897 -0.41622,0.9252 -0.92971,0.9252 -0.50897,0 -0.92293,-0.41623 -0.92293,-0.9252 0,-0.51575 0.41396,-0.9252 0.92293,-0.9252 0.51349,0 0.92971,0.40945 0.92971,0.9252"
       id="path1236" />
    <path
       style="fill:#3f3f3f;fill-opacity:1;fill-rule:nonzero;stroke:none;stroke-width:0.579094"
       d="m 227.14869,120.37703 c -0.40038,0.32122 -0.98401,0.25336 -1.30296,-0.14478 -0.3167,-0.39814 -0.25335,-0.98175 0.14249,-1.3007 0.40038,-0.31897 0.98399,-0.25562 1.30296,0.14248 0.32121,0.40265 0.26013,0.98402 -0.14249,1.30297"
       id="path1238" />
    <g
       id="use1240"
       clip-path="url(#clip22)"
       transform="matrix(0.57909413,0,0,0.57909413,201.79297,103.92714)">
      <g
         clip-path="url(#clip23)"
         clip-rule="nonzero"
         id="g2078">
        <path
           style="fill:#f0f0f0;fill-opacity:1;fill-rule:nonzero;stroke:none"
           d="M 1.039062,33.136719 H 55.546875 V 0.609375 H 1.039062 Z m 0,0"
           id="path2076" />
      </g>
      <g
         clip-path="url(#clip24)"
         clip-rule="nonzero"
         id="g2082">
        <path
           style="fill:none;stroke:#009442;stroke-width:0.5;stroke-linecap:butt;stroke-linejoin:miter;stroke-miterlimit:10;stroke-opacity:1"
           d="m 416.71386,92.468718 h 29.71934 v 17.734912 h -29.71934 z m 0,0"
           transform="matrix(1.834086,0,0,-1.834086,-763.25,202.7323)"
           id="path2080" />
      </g>
    </g>
    <path
       style="fill:#119e85;fill-opacity:1;fill-rule:nonzero;stroke:none;stroke-width:0.579094"
       d="m 227.4224,108.01699 c -0.1108,0.49766 -0.60398,0.81887 -1.10163,0.70804 -0.49766,-0.10637 -0.81662,-0.60172 -0.70804,-1.09938 0.10638,-0.50218 0.60172,-0.81888 1.09938,-0.70804 0.49991,0.10637 0.81888,0.59947 0.71029,1.09938"
       id="path1242" />
    <path
       style="fill:#119e85;fill-opacity:1;fill-rule:nonzero;stroke:none;stroke-width:0.579094"
       d="m 215.20262,116.4591 c 0.32347,0.39812 0.26239,0.98175 -0.13346,1.30296 -0.39812,0.32348 -0.984,0.26466 -1.30521,-0.13346 -0.32122,-0.39813 -0.26015,-0.97949 0.13805,-1.30522 0.39586,-0.32122 0.97948,-0.26015 1.3007,0.13575"
       id="path1244" />
    <path
       style="fill:#119e85;fill-opacity:1;fill-rule:nonzero;stroke:none;stroke-width:0.579094"
       d="m 221.28762,112.51402 c -0.1085,0.49992 -0.59945,0.81661 -1.10162,0.70351 -0.5022,-0.10408 -0.81663,-0.59493 -0.71256,-1.09938 0.1108,-0.49991 0.6017,-0.81435 1.1039,-0.7035 0.49991,0.10408 0.81887,0.59719 0.71028,1.09937"
       id="path1246" />
    <path
       style="fill:#119e85;fill-opacity:1;fill-rule:nonzero;stroke:none;stroke-width:0.579094"
       d="m 211.13764,118.96776 c 0.32123,0.39586 0.26015,0.97947 -0.13576,1.30296 -0.40038,0.32121 -0.98401,0.26241 -1.30296,-0.13345 -0.32348,-0.39812 -0.2624,-0.97949 0.13346,-1.30523 0.39812,-0.32121 0.98173,-0.26013 1.30521,0.13575"
       id="path1248" />
    <path
       style="fill:#119e85;fill-opacity:1;fill-rule:nonzero;stroke:none;stroke-width:0.579094"
       d="m 208.05669,119.58304 c 0.32121,0.3936 0.2624,0.97949 -0.13805,1.30297 -0.39359,0.31895 -0.97722,0.25788 -1.3007,-0.13806 -0.32121,-0.39814 -0.26013,-0.97722 0.13575,-1.29843 0.39812,-0.32348 0.97722,-0.26467 1.30297,0.13345"
       id="path1250" />
    <path
       style="fill:#119e85;fill-opacity:1;fill-rule:nonzero;stroke:none;stroke-width:0.579094"
       d="m 223.97498,111.59562 c -0.10637,0.49991 -0.60171,0.81661 -1.09938,0.70577 -0.49991,-0.10637 -0.81886,-0.60172 -0.71028,-1.09711 0.10866,-0.49993 0.59945,-0.81888 1.10162,-0.71256 0.5022,0.11081 0.81888,0.6017 0.70804,1.1039"
       id="path1252" />
    <path
       style="fill:#f0f0f0;fill-opacity:1;fill-rule:nonzero;stroke:#009442;stroke-width:0.531054;stroke-linecap:butt;stroke-linejoin:miter;stroke-miterlimit:10;stroke-opacity:1"
       d="M 88.960269,92.158392 H 120.52767 V 73.321985 H 88.960269 Z m 0,0"
       id="path1254" />
    <path
       style="fill:#119e85;fill-opacity:1;fill-rule:nonzero;stroke:none;stroke-width:0.579094"
       d="m 113.99024,77.058973 c -0.1108,0.497662 -0.60172,0.81661 -1.10163,0.705774 -0.4954,-0.104073 -0.81661,-0.599452 -0.70804,-1.099379 0.10637,-0.502196 0.60172,-0.816614 1.09938,-0.705778 0.49993,0.104073 0.81888,0.599456 0.71029,1.099383"
       id="path1256" />
    <path
       style="fill:#119e85;fill-opacity:1;fill-rule:nonzero;stroke:none;stroke-width:0.579094"
       d="m 101.77045,85.498817 c 0.32348,0.398119 0.2624,0.981748 -0.13346,1.302962 -0.39813,0.323479 -0.98401,0.266928 -1.30522,-0.131158 -0.32122,-0.39812 -0.26015,-0.979483 0.13805,-1.305211 0.39585,-0.323496 0.97948,-0.262415 1.3007,0.133456"
       id="path1258" />
    <path
       style="fill:#119e85;fill-opacity:1;fill-rule:nonzero;stroke:none;stroke-width:0.579094"
       d="m 107.85546,81.553736 c -0.10851,0.499927 -0.59945,0.818875 -1.10163,0.705774 -0.50218,-0.104073 -0.81661,-0.594939 -0.71255,-1.09938 0.1108,-0.49991 0.60171,-0.81661 1.10389,-0.705774 0.49993,0.106371 0.81888,0.599453 0.71029,1.09938"
       id="path1260" />
    <path
       style="fill:#119e85;fill-opacity:1;fill-rule:nonzero;stroke:none;stroke-width:0.579094"
       d="m 97.705493,88.009729 c 0.32121,0.39587 0.26013,0.979482 -0.13575,1.300696 -0.40039,0.32348 -0.98174,0.262398 -1.30297,-0.133456 -0.32121,-0.398136 -0.26239,-0.979482 0.13346,-1.305227 0.39812,-0.321214 0.98175,-0.257884 1.30523,0.138052"
       id="path1262" />
    <path
       style="fill:#119e85;fill-opacity:1;fill-rule:nonzero;stroke:none;stroke-width:0.579094"
       d="m 94.624526,88.622757 c 0.321217,0.393605 0.262397,0.979482 -0.13575,1.302962 -0.39587,0.318948 -0.97948,0.260132 -1.30296,-0.135755 -0.32122,-0.398135 -0.26015,-0.977233 0.13575,-1.298447 0.39812,-0.325745 0.97722,-0.266912 1.30296,0.131158"
       id="path1264" />
    <path
       style="fill:#119e85;fill-opacity:1;fill-rule:nonzero;stroke:none;stroke-width:0.579094"
       d="m 110.54508,80.637583 c -0.10637,0.499927 -0.60398,0.814362 -1.10164,0.703509 -0.49991,-0.106371 -0.81659,-0.599452 -0.71029,-1.097098 0.10851,-0.499927 0.59945,-0.816626 1.10165,-0.710305 0.50217,0.108505 0.81887,0.601718 0.71028,1.103894"
       id="path1266" />
    <path
       style="fill:#f0f0f0;fill-opacity:1;fill-rule:nonzero;stroke:#009442;stroke-width:0.531054;stroke-linecap:butt;stroke-linejoin:miter;stroke-miterlimit:10;stroke-opacity:1"
       d="m 129.31361,92.158392 h 14.52034 V 73.321985 h -14.52034 z m 0,0"
       id="path1268" />
    <path
       style="fill:#119e85;fill-opacity:1;fill-rule:nonzero;stroke:none;stroke-width:0.579094"
       d="m 156.4677,77.058973 c -0.1108,0.497662 -0.60172,0.81661 -1.10163,0.705774 -0.49539,-0.104073 -0.81663,-0.599452 -0.70804,-1.099379 0.10637,-0.502196 0.60172,-0.816614 1.09938,-0.705778 0.50218,0.104073 0.81888,0.599456 0.71029,1.099383"
       id="path1270" />
    <path
       style="fill:#119e85;fill-opacity:1;fill-rule:nonzero;stroke:none;stroke-width:0.579094"
       d="m 141.05838,85.498817 c 0.32348,0.398119 0.2624,0.981748 -0.13116,1.302962 -0.40039,0.323479 -0.98401,0.266928 -1.30523,-0.131158 -0.32121,-0.39812 -0.2624,-0.979483 0.13576,-1.305211 0.39812,-0.323496 0.97948,-0.262415 1.30069,0.133456"
       id="path1272" />
    <path
       style="fill:#119e85;fill-opacity:1;fill-rule:nonzero;stroke:none;stroke-width:0.579094"
       d="m 150.33292,81.553736 c -0.1085,0.499927 -0.59945,0.818875 -1.10163,0.705774 -0.50217,-0.104073 -0.81661,-0.594939 -0.71255,-1.09938 0.1131,-0.49991 0.60172,-0.81661 1.10614,-0.705774 0.49766,0.106371 0.81889,0.599453 0.70804,1.09938"
       id="path1274" />
    <path
       style="fill:#119e85;fill-opacity:1;fill-rule:nonzero;stroke:none;stroke-width:0.579094"
       d="m 136.9934,88.009729 c 0.32121,0.39587 0.26014,0.979482 -0.13346,1.300696 -0.40039,0.32348 -0.98401,0.262398 -1.30296,-0.133456 -0.32348,-0.398136 -0.26467,-0.979482 0.13345,-1.305227 0.39587,-0.321214 0.98175,-0.257884 1.30297,0.138052"
       id="path1276" />
    <path
       style="fill:#119e85;fill-opacity:1;fill-rule:nonzero;stroke:none;stroke-width:0.579094"
       d="m 133.91243,88.622757 c 0.32348,0.393605 0.26241,0.979482 -0.13575,1.302962 -0.39586,0.318948 -0.97949,0.260132 -1.3007,-0.135755 -0.32348,-0.398135 -0.26013,-0.977233 0.13346,-1.298447 0.39813,-0.325745 0.97949,-0.266912 1.30296,0.131158"
       id="path1278" />
    <path
       style="fill:#119e85;fill-opacity:1;fill-rule:nonzero;stroke:none;stroke-width:0.579094"
       d="m 153.02255,80.637583 c -0.10638,0.499927 -0.60172,0.814362 -1.10165,0.703509 -0.49991,-0.106371 -0.81661,-0.599452 -0.70802,-1.097098 0.1085,-0.499927 0.59945,-0.816626 1.10163,-0.710305 0.49992,0.108505 0.81887,0.601718 0.70804,1.103894"
       id="path1280" />
    <path
       style="fill:none;stroke:#3f3f3f;stroke-width:0.531054;stroke-linecap:butt;stroke-linejoin:miter;stroke-miterlimit:10;stroke-dasharray:2.12422;stroke-opacity:1"
       d="M 104.74509,71.243139 V 96.601133"
       id="path1282" />
    <path
       style="fill:#3f3f3f;fill-opacity:1;fill-rule:nonzero;stroke:none;stroke-width:0.579094"
       d="m 127.28225,82.804661 -2.44078,1.809668 c -0.052,0.03628 -0.0927,0.01313 -0.0927,-0.04744 l -0.002,-1.142355 c -0.68767,-0.0098 -2.18743,-0.02495 -2.63081,1.029254 0.0317,-2.171608 2.11732,-2.470202 2.63081,-2.510928 l -0.002,-1.029238 c 0,-0.06566 0.043,-0.08372 0.0927,-0.04744 l 2.44532,1.802889 c 0.0497,0.03841 0.052,0.09948 0,0.135754"
       id="path1284" />
    <text
       xml:space="preserve"
       style="font-size:11.2889px;line-height:125%;font-family:Sans;letter-spacing:0px;word-spacing:0px;fill:#3f3f3f;fill-opacity:1;stroke:none;stroke-width:0.264583px;stroke-linecap:butt;stroke-linejoin:miter;stroke-opacity:1"
       x="12.485126"
       y="67.281464"
       id="text2801"><tspan
         id="tspan2799"
         style="font-style:normal;font-variant:normal;font-weight:normal;font-stretch:normal;font-size:6.35px;font-family:sans-serif;-inkscape-font-specification:'sans-serif, Normal';font-variant-ligatures:normal;font-variant-caps:normal;font-variant-numeric:normal;font-variant-east-asian:normal;fill:#3f3f3f;fill-opacity:1;stroke:none;stroke-width:0.264583px"
         x="12.485126"
         y="67.281464">Сопоставление</tspan></text>
    <text
       xml:space="preserve"
       style="font-size:11.2889px;line-height:125%;font-family:Sans;letter-spacing:0px;word-spacing:0px;fill:#3f3f3f;fill-opacity:1;stroke:none;stroke-width:0.264583px;stroke-linecap:butt;stroke-linejoin:miter;stroke-opacity:1"
       x="111.30228"
       y="66.979698"
       id="text2805"><tspan
         id="tspan2803"
         style="font-style:normal;font-variant:normal;font-weight:normal;font-stretch:normal;font-size:6.35px;font-family:sans-serif;-inkscape-font-specification:'sans-serif, Normal';font-variant-ligatures:normal;font-variant-caps:normal;font-variant-numeric:normal;font-variant-east-asian:normal;fill:#3f3f3f;fill-opacity:1;stroke:none;stroke-width:0.264583px"
         x="111.30228"
         y="66.979698">Разделение</tspan></text>
    <text
       xml:space="preserve"
       style="font-size:11.2889px;line-height:125%;font-family:Sans;letter-spacing:0px;word-spacing:0px;fill:#3f3f3f;fill-opacity:1;stroke:none;stroke-width:0.264583px;stroke-linecap:butt;stroke-linejoin:miter;stroke-opacity:1"
       x="196.00047"
       y="67.117256"
       id="text2809"><tspan
         id="tspan2807"
         style="font-style:normal;font-variant:normal;font-weight:normal;font-stretch:normal;font-size:6.35px;font-family:sans-serif;-inkscape-font-specification:'sans-serif, Normal';font-variant-ligatures:normal;font-variant-caps:normal;font-variant-numeric:normal;font-variant-east-asian:normal;fill:#3f3f3f;fill-opacity:1;stroke:none;stroke-width:0.264583px"
         x="196.00047"
         y="67.117256">Совмещение</tspan></text>
  </g>
  <rect
     style="fill:#e6e6e6;fill-opacity:0.57067;stroke:none;stroke-width:0.356381;paint-order:markers stroke fill;stop-color:#000000"
     id="rect379"
     width="175.95508"
     height="62.193356"
     x="75.195183"
     y="0" />
</svg>
